<svg xmlns="http://www.w3.org/2000/svg" viewBox="0 0 64 64">
  <defs>
    <linearGradient id="gold" x1="12" y1="8" x2="52" y2="56" gradientUnits="userSpaceOnUse">
      <stop offset="0" stop-color="#f1d27a"/>
      <stop offset="1" stop-color="#d6a43a"/>
    </linearGradient>
  </defs>
  <rect width="64" height="64" rx="12" fill="#07111f"/>
  <rect x="8" y="8" width="48" height="48" rx="10" fill="url(#gold)"/>
  <path d="M33.5 48C23.7 48 16 41 16 32.1C16 23.1 23.8 16 33.6 16C39.6 16 44.4 18.3 47.4 22.4L41.2 27.2C39.5 24.8 37.1 23.6 33.9 23.6C28.5 23.6 24.5 27.2 24.5 32.1C24.5 37 28.4 40.6 33.8 40.6C36.1 40.6 38.1 40.1 39.8 39V35.9H32.4V29.2H47.8V42.8C44.1 46.1 39.1 48 33.5 48Z" fill="#07111f"/>
</svg>
