<svg xmlns="http://www.w3.org/2000/svg" width="1200" height="675" viewBox="0 0 1200 675" role="img" aria-labelledby="title desc">
  <title id="title">AI productivity dashboard illustration</title>
  <desc id="desc">A polished SaaS dashboard with automation nodes, charts, and AI assistant panels.</desc>
  <defs>
    <linearGradient id="bg" x1="0" x2="1" y1="0" y2="1">
      <stop offset="0" stop-color="#07111f"/>
      <stop offset="0.52" stop-color="#0d1b2f"/>
      <stop offset="1" stop-color="#123047"/>
    </linearGradient>
    <linearGradient id="gold" x1="0" x2="1" y1="0" y2="1">
      <stop offset="0" stop-color="#f1d27a"/>
      <stop offset="1" stop-color="#d6a43a"/>
    </linearGradient>
    <linearGradient id="teal" x1="0" x2="1" y1="0" y2="1">
      <stop offset="0" stop-color="#7dd3fc"/>
      <stop offset="1" stop-color="#2dd4bf"/>
    </linearGradient>
    <filter id="shadow" x="-20%" y="-20%" width="140%" height="140%">
      <feDropShadow dx="0" dy="22" stdDeviation="20" flood-color="#020617" flood-opacity=".28"/>
    </filter>
  </defs>
  <rect width="1200" height="675" fill="url(#bg)"/>
  <circle cx="1015" cy="80" r="210" fill="#24305f" opacity=".42"/>
  <circle cx="145" cy="575" r="245" fill="#0f766e" opacity=".38"/>
  <path d="M110 158h980a34 34 0 0 1 34 34v365a34 34 0 0 1-34 34H110a34 34 0 0 1-34-34V192a34 34 0 0 1 34-34z" fill="#ffffff" opacity=".1" stroke="#ffffff" stroke-opacity=".24"/>
  <g filter="url(#shadow)">
    <rect x="135" y="210" width="305" height="330" rx="18" fill="#f8fafc"/>
    <rect x="475" y="210" width="270" height="330" rx="18" fill="#f8fafc"/>
    <rect x="780" y="210" width="285" height="330" rx="18" fill="#f8fafc"/>
  </g>
  <rect x="168" y="248" width="148" height="16" rx="8" fill="#0f172a"/>
  <rect x="168" y="283" width="224" height="10" rx="5" fill="#94a3b8"/>
  <rect x="168" y="322" width="230" height="108" rx="14" fill="#e8f3f3"/>
  <path d="M190 400c29-53 58-55 87-8s57 46 86-20" fill="none" stroke="url(#teal)" stroke-width="12" stroke-linecap="round"/>
  <rect x="168" y="460" width="84" height="18" rx="9" fill="#d6a43a"/>
  <rect x="266" y="460" width="132" height="18" rx="9" fill="#cbd5e1"/>
  <circle cx="610" cy="320" r="86" fill="url(#teal)" opacity=".92"/>
  <path d="M610 254v132M546 320h128" stroke="#ffffff" stroke-width="17" stroke-linecap="round"/>
  <path d="M560 445h100" stroke="#0f172a" stroke-width="12" stroke-linecap="round"/>
  <path d="M610 410v58" stroke="#0f172a" stroke-width="12" stroke-linecap="round"/>
  <rect x="520" y="250" width="112" height="16" rx="8" fill="#0f172a"/>
  <rect x="520" y="487" width="170" height="16" rx="8" fill="#94a3b8"/>
  <rect x="815" y="248" width="120" height="16" rx="8" fill="#0f172a"/>
  <rect x="815" y="285" width="185" height="10" rx="5" fill="#94a3b8"/>
  <g fill="url(#gold)">
    <rect x="822" y="445" width="30" height="55" rx="8"/>
    <rect x="872" y="394" width="30" height="106" rx="8"/>
    <rect x="922" y="350" width="30" height="150" rx="8"/>
    <rect x="972" y="315" width="30" height="185" rx="8"/>
  </g>
  <g stroke="#2dd4bf" stroke-width="8" stroke-linecap="round" opacity=".9">
    <path d="M848 350h50"/>
    <path d="M848 324h126"/>
    <path d="M848 298h88"/>
  </g>
</svg>
