<svg xmlns="http://www.w3.org/2000/svg" width="1200" height="675" viewBox="0 0 1200 675" role="img" aria-labelledby="title desc">
  <title id="title">AI content planning illustration</title>
  <desc id="desc">Modern content creation board with pins, writing assistant cards, and campaign analytics.</desc>
  <defs>
    <linearGradient id="bg" x1="0" x2="1" y1="0" y2="1">
      <stop offset="0" stop-color="#07111f"/>
      <stop offset=".55" stop-color="#0d1b2f"/>
      <stop offset="1" stop-color="#12273f"/>
    </linearGradient>
    <linearGradient id="accent" x1="0" x2="1" y1="0" y2="1">
      <stop offset="0" stop-color="#ff6b5f"/>
      <stop offset="1" stop-color="#d6a43a"/>
    </linearGradient>
    <linearGradient id="mint" x1="0" x2="1" y1="0" y2="1">
      <stop offset="0" stop-color="#99f6e4"/>
      <stop offset="1" stop-color="#64b5f6"/>
    </linearGradient>
    <filter id="shadow" x="-20%" y="-20%" width="140%" height="140%">
      <feDropShadow dx="0" dy="22" stdDeviation="20" flood-color="#020617" flood-opacity=".3"/>
    </filter>
  </defs>
  <rect width="1200" height="675" fill="url(#bg)"/>
  <circle cx="150" cy="150" r="230" fill="#0f766e" opacity=".28"/>
  <circle cx="1040" cy="555" r="240" fill="#24305f" opacity=".42"/>
  <g filter="url(#shadow)">
    <rect x="120" y="90" width="960" height="495" rx="28" fill="#f8fafc"/>
  </g>
  <rect x="165" y="138" width="300" height="398" rx="22" fill="#0f172a"/>
  <rect x="198" y="174" width="234" height="142" rx="20" fill="url(#mint)"/>
  <circle cx="262" cy="246" r="44" fill="#ffffff" opacity=".88"/>
  <path d="M253 262c38-73 76-73 114 0" stroke="#0f172a" stroke-width="13" stroke-linecap="round" fill="none"/>
  <rect x="198" y="350" width="180" height="14" rx="7" fill="#ffffff"/>
  <rect x="198" y="382" width="224" height="12" rx="6" fill="#cbd5e1"/>
  <rect x="198" y="414" width="146" height="12" rx="6" fill="#cbd5e1"/>
  <rect x="198" y="464" width="190" height="44" rx="22" fill="url(#accent)"/>
  <rect x="515" y="138" width="235" height="170" rx="18" fill="#eef6f9"/>
  <rect x="546" y="175" width="120" height="14" rx="7" fill="#0f172a"/>
  <rect x="546" y="210" width="164" height="10" rx="5" fill="#94a3b8"/>
  <rect x="546" y="238" width="118" height="10" rx="5" fill="#94a3b8"/>
  <circle cx="707" cy="256" r="24" fill="url(#accent)"/>
  <rect x="790" y="138" width="245" height="170" rx="18" fill="#fff7e1"/>
  <path d="M835 260c22-45 45-46 68-2s45 43 68-28" stroke="#d6a43a" stroke-width="12" stroke-linecap="round" fill="none"/>
  <rect x="822" y="175" width="132" height="14" rx="7" fill="#0f172a"/>
  <rect x="822" y="208" width="178" height="10" rx="5" fill="#94a3b8"/>
  <rect x="515" y="350" width="520" height="186" rx="20" fill="#f1f5f9"/>
  <g fill="#0f172a">
    <rect x="548" y="386" width="170" height="14" rx="7"/>
    <rect x="548" y="420" width="405" height="10" rx="5" opacity=".38"/>
    <rect x="548" y="452" width="352" height="10" rx="5" opacity=".38"/>
    <rect x="548" y="484" width="250" height="10" rx="5" opacity=".38"/>
  </g>
  <g transform="translate(902 396)">
    <circle cx="48" cy="48" r="48" fill="url(#mint)"/>
    <path d="M48 18v60M19 48h58" stroke="#ffffff" stroke-width="12" stroke-linecap="round"/>
  </g>
</svg>
